<?xml version="1.0" encoding="UTF-8"?>
<svg xmlns="http://www.w3.org/2000/svg" xmlns:xlink="http://www.w3.org/1999/xlink" version="1.1" width="3162.162162162162" 
        height="622.0441752766096" viewBox="0 0 3162.162162162162 622.0441752766096">
			
			<g transform="scale(8.108108108108107) translate(10, 10)">
				<defs id="SvgjsDefs2045"><linearGradient id="SvgjsLinearGradient2052"><stop id="SvgjsStop2053" stop-color="#147d6c" offset="0"></stop><stop id="SvgjsStop2054" stop-color="#1effff" offset="1"></stop></linearGradient></defs><g id="SvgjsG2046" featureKey="5TMTKC-0" transform="matrix(0.777789975581316,0,0,0.777789975581316,-3.8900402626417874,-10.530498135219576)" fill="url(#SvgjsLinearGradient2052)"><g xmlns="http://www.w3.org/2000/svg" display="none"><rect x="-137.382" y="-8.38" display="inline" fill="url(#SvgjsLinearGradient2052)" stroke="url(#SvgjsLinearGradient2052)" stroke-width="0.4634" stroke-miterlimit="10" width="1226.941" height="1582.379"></rect></g><g xmlns="http://www.w3.org/2000/svg"><g><path d="M93.626,33.986c-2.331-4.859-7.324-8-12.718-8c-0.508,0-1.012,0.027-1.512,0.081c-0.671-5.771-4.906-10.803-10.833-12.167    c-1.042-0.24-2.108-0.361-3.169-0.361c-1.32,0-2.633,0.187-3.902,0.555c-5.703,1.654-9.686,7.088-9.686,13.215v0.971v10.629V61.1    v7.968v3.569c0,7.236,5.489,13.293,12.497,13.79c0.328,0.023,0.661,0.035,0.989,0.035c1.051,0,2.104-0.12,3.13-0.356    c5.924-1.337,10.18-6.348,10.876-12.112c0.518,0.058,1.041,0.087,1.568,0.087c5.372,0,10.356-3.122,12.699-7.953    c2.656-5.478,1.39-11.935-2.69-16.073C94.972,45.932,96.264,39.477,93.626,33.986z M90.917,64.845    c-1.929,3.977-5.91,6.295-10.052,6.295c-1.555,0-3.132-0.327-4.633-1.015c1.215,5.934-2.537,11.776-8.471,13.115    c-0.826,0.19-1.661,0.281-2.471,0.281c-0.262,0-0.522-0.009-0.781-0.028c-5.569-0.395-9.764-5.273-9.764-10.856v-3.569V61.1    V38.908V28.279v-0.971c0-4.738,3.014-9.071,7.564-10.39c0.989-0.287,2.025-0.438,3.083-0.438c0.828,0,1.668,0.093,2.51,0.286    c5.925,1.363,9.652,7.223,8.412,13.156c1.489-0.674,3.053-0.995,4.593-0.995c4.159,0,8.15,2.335,10.068,6.333    c2.636,5.487,0.38,12.057-5.033,14.784C91.347,52.796,93.57,59.374,90.917,64.845z"></path><g><path d="M17.646,48.444h8.611v9.173h9.966v-1.961h-0.865h-7.14v-8.086v-1.086h-0.959h-7.652v-5.537h2.05v-0.808V34.69h-6.257     v6.257h2.246V48.444z M17.36,38.986v-2.335h2.335v2.335H17.36z"></path><path d="M19.606,66.513v-6.847h2.05v-0.764v-5.493h-6.257v6.257h2.246v8.807h9.778v-0.98v0v-0.98h-0.658H19.606z M17.36,57.705     V55.37h2.335v2.335H17.36z"></path><path d="M39.921,52.143h-0.98v2.505v19.707h-2.822v-2.148h-4.052h-2.205v6.257h6.257v-2.148h4.783V52.143H39.921L39.921,52.143z      M34.158,76.503h-2.335v-2.335h2.335V76.503z"></path><path d="M34.714,30.031v-2.148h3.468v9.126v1.267h1.961V25.923h-5.429v-2.148h-6.256v6.256h4.326H34.714z M32.754,28.071h-2.335     v-2.335h2.335V28.071z"></path><path d="M68.447,59.847h-0.98v1.657v12.712h-3.733v-2.148h-2.516h-3.741v6.257h6.257v-2.148h5.693v-16.33H68.447L68.447,59.847z      M61.774,76.364h-2.335v-2.335h2.335V76.364z"></path><path d="M82.615,43.399v-7.812l-16.581,0.091h-5.175v-8.914h3.995v2.148h2.987h3.269v-6.257h-6.257v2.148h-5.956v30.792h-1.42     v6.257h6.257v-6.257h-2.876v-0.542V37.638h11.289v10.583h-1.779v0.322v5.196h5.518v-5.518h-1.778V37.548h1.297h5.25v4.702v1.149     h-1.778v5.517h5.518v-5.517H82.615z M66.814,24.616h2.335v2.335h-2.335V24.616z M61.774,57.556v2.335h-2.335v-2.335H61.774z      M73.925,51.779h-1.596v-1.596h1.596V51.779z M82.432,46.955h-1.596v-1.596h1.596V46.955z"></path><path d="M78.876,59.037v0.82h1.778v5.537h-6.759h-0.768v0.98v0v0.98h9.487v-7.497h1.778V54.34h-5.517V59.037z M80.836,56.3h1.596     v1.596h-1.596V56.3z"></path><path d="M38.51,14.09c-1.27-0.37-2.58-0.55-3.9-0.55c-1.06,0-2.13,0.12-3.17,0.36c-5.93,1.36-10.16,6.4-10.84,12.17     c-0.49-0.06-1-0.08-1.51-0.08c-5.39,0-10.38,3.14-12.72,8c-2.63,5.49-1.34,11.94,2.76,16.06c-4.08,4.14-5.35,10.6-2.69,16.08     c2.34,4.83,7.32,7.95,12.7,7.95c0.52,0,1.05-0.03,1.56-0.09c0.7,5.77,4.96,10.78,10.89,12.12c1.02,0.23,2.07,0.35,3.12,0.35     c0.33,0,0.66-0.01,0.99-0.03c7.01-0.5,12.5-6.56,12.5-13.79V27.31C48.2,21.18,44.21,15.75,38.51,14.09z M45.25,72.64     c0,5.58-4.19,10.46-9.76,10.85c-0.26,0.02-0.52,0.03-0.78,0.03c-0.81,0-1.64-0.09-2.47-0.28c-5.93-1.34-9.69-7.18-8.47-13.11     c-1.5,0.68-3.08,1.01-4.63,1.01c-4.15,0-8.13-2.32-10.06-6.3c-2.65-5.47-0.43-12.04,4.98-14.8c-5.42-2.72-7.67-9.29-5.03-14.78     c1.91-4,5.9-6.33,10.06-6.33c1.54,0,3.11,0.32,4.6,0.99c-1.24-5.93,2.48-11.79,8.41-13.15c0.84-0.2,1.68-0.29,2.51-0.29     c1.06,0,2.09,0.15,3.08,0.44c4.55,1.32,7.56,5.65,7.56,10.39v17.33h-7.5v-2.15h-6.26v6.26h6.26V46.6h7.5V72.64z M35.79,44.45     v2.34h-2.33v-2.34H35.79z"></path></g></g></g></g><g id="SvgjsG2047" featureKey="7UBp9i-0" transform="matrix(2.0048682577858203,0,0,2.0048682577858203,87.75454778071885,-7.984243006017531)" fill="#ffffff"><path d="M4.7 7.460000000000001 c-0.6 0 -1.1 0.48 -1.1 1.08 l0 2.7 l10.06 0 l0 5.18 c0 1.98 -1.6 3.58 -3.58 3.58 l-8.96 0 l0 -2.48 l8.96 0 c0.6 0 1.1 -0.5 1.1 -1.1 l0 -2.7 l-10.06 0 l0 -5.18 c0 -1.96 1.6 -3.56 3.58 -3.56 l8.96 0 l0 2.48 l-8.96 0 z M24.78 20 l-5.38 0 c-1.98 0 -3.58 -1.6 -3.58 -3.58 l0 -7.88 c0 -1.96 1.6 -3.56 3.58 -3.56 l5.38 0 c1.98 0 3.58 1.6 3.58 3.56 l0 7.88 c0 1.98 -1.6 3.58 -3.58 3.58 z M19.400000000000002 7.460000000000001 c-0.6 0 -1.1 0.48 -1.1 1.08 l0 7.88 c0 0.6 0.5 1.1 1.1 1.1 l5.38 0 c0.6 0 1.1 -0.5 1.1 -1.1 l0 -7.88 c0 -0.6 -0.5 -1.08 -1.1 -1.08 l-5.38 0 z M39.400000000000006 14.96 l2.48 0 l0 1.46 c0 1.98 -1.6 3.58 -3.58 3.58 l-4.2 0 c-1.98 0 -3.58 -1.6 -3.58 -3.58 l0 -11.44 l2.48 0 l0 11.44 c0 0.6 0.5 1.1 1.1 1.1 l4.2 0 c0.6 0 1.1 -0.5 1.1 -1.1 l0 -1.46 z M52.480000000000004 20 l-5.38 0 c-1.98 0 -3.58 -1.6 -3.58 -3.58 l0 -7.88 c0 -1.96 1.6 -3.56 3.58 -3.56 l5.38 0 c1.98 0 3.58 1.6 3.58 3.56 l0 7.88 c0 1.98 -1.6 3.58 -3.58 3.58 z M47.1 7.460000000000001 c-0.6 0 -1.1 0.48 -1.1 1.08 l0 7.88 c0 0.6 0.5 1.1 1.1 1.1 l5.38 0 c0.6 0 1.1 -0.5 1.1 -1.1 l0 -7.88 c0 -0.6 -0.5 -1.08 -1.1 -1.08 l-5.38 0 z M67.9 4.98 l2.64 0 l-5.36 15.02 l-2.64 0 l-5.36 -15.02 l2.64 0 l4.04 11.32 z M81.72 14.96 l2.48 0 l0 1.46 c0 1.98 -1.6 3.58 -3.58 3.58 l-5.38 0 c-1.98 0 -3.58 -1.6 -3.58 -3.58 l0 -7.88 c0 -1.96 1.6 -3.56 3.58 -3.56 l7.72 0 l0 2.48 l-7.72 0 c-0.6 0 -1.1 0.48 -1.1 1.08 l0 2.7 l7.58 0 l0 2.48 l-7.58 0 l0 2.7 c0 0.6 0.5 1.1 1.1 1.1 l5.38 0 c0.6 0 1.1 -0.5 1.1 -1.1 l0 -1.46 z M97.42000000000002 20 l-7.72 0 c-1.98 0 -3.58 -1.6 -3.58 -3.58 l0 -7.88 c0 -1.96 1.6 -3.56 3.58 -3.56 l5.38 0 c1.98 0 3.58 1.6 3.58 3.56 l0 1.48 l-2.48 0 l0 -1.48 c0 -0.6 -0.5 -1.08 -1.1 -1.08 l-5.38 0 c-0.6 0 -1.1 0.48 -1.1 1.08 l0 7.88 c0 0.6 0.5 1.1 1.1 1.1 l7.72 0 l0 2.48 z M111.66000000000001 4.98 l0 2.48 l-4.44 0 l0 12.54 l-2.48 0 l0 -12.54 l-4.44 0 l0 -2.48 l11.36 0 z M122.38000000000001 20 l-5.38 0 c-1.98 0 -3.58 -1.6 -3.58 -3.58 l0 -7.88 c0 -1.96 1.6 -3.56 3.58 -3.56 l5.38 0 c1.98 0 3.58 1.6 3.58 3.56 l0 7.88 c0 1.98 -1.6 3.58 -3.58 3.58 z M117.00000000000001 7.460000000000001 c-0.6 0 -1.1 0.48 -1.1 1.08 l0 7.88 c0 0.6 0.5 1.1 1.1 1.1 l5.38 0 c0.6 0 1.1 -0.5 1.1 -1.1 l0 -7.88 c0 -0.6 -0.5 -1.08 -1.1 -1.08 l-5.38 0 z M140.78 10.16 c0 1.96 -1.6 3.56 -3.58 3.56 l-0.9 0 l4.46 6.28 l-3.04 0 l-4.48 -6.26 l0 -0.02 l0 0 l0 -2.48 l3.96 0 c0.6 0 1.1 -0.48 1.1 -1.08 l0 -1.62 c0 -0.6 -0.5 -1.08 -1.1 -1.08 l-6.48 0 l0 12.54 l-0.06 0 l-2.42 0 l0 -15.02 l8.96 0 c1.98 0 3.58 1.6 3.58 3.56 l0 1.62 z"></path></g><g id="SvgjsG2048" featureKey="sloganFeature-0" transform="matrix(0.9327115114270005,0,0,0.9327115114270005,88.39573617366047,37.093938570667774)" fill="#ffffff"><path d="M3.66 13.48 l0 6.52 l-1.94 0 l0 -14.36 l9.94 0 l0 1.72 l-8 0 l0 4.4 l7.04 0 l0 1.72 l-7.04 0 l0 1.72 l-7.04 0 z M25 12.82 c0 -3.38 -1.88 -5.84 -5 -5.84 s-5 2.46 -5 5.84 s1.88 5.84 5 5.84 s5 -2.46 5 -5.84 z M27 12.82 c0 3.1 -1.64 7.56 -7 7.56 s-7 -4.46 -7 -7.56 s1.64 -7.56 7 -7.56 s7 4.46 7 7.56 z M41.260000000000005 9.96 l-1.88 0 c-0.54 -2.52 -2.64 -2.98 -4.02 -2.98 c-2.6 0 -4.7 1.92 -4.7 5.7 c0 3.38 1.2 5.98 4.76 5.98 c1.26 0 3.44 -0.6 4.1 -3.94 l1.88 0 c-0.8 5.42 -5.2 5.66 -6.28 5.66 c-3.26 0 -6.46 -2.12 -6.46 -7.64 c0 -4.42 2.52 -7.48 6.7 -7.48 c3.7 0 5.62 2.3 5.9 4.7 z M53.16 5.640000000000001 l1.94 0 l0 9.32 c0 2.94 -1.84 5.42 -5.78 5.42 c-3.86 0 -5.52 -2.48 -5.52 -5.16 l0 -9.58 l1.94 0 l0 9.04 c0 3.12 1.9 3.98 3.64 3.98 c1.78 0 3.78 -0.82 3.78 -3.94 l0 -9.08 z M68.66 9.84 l-1.82 0 c-0.1 -2.22 -1.94 -2.92 -3.56 -2.92 c-1.22 0 -3.28 0.34 -3.28 2.52 c0 1.22 0.86 1.62 1.7 1.82 l4.1 0.94 c1.86 0.44 3.26 1.56 3.26 3.84 c0 3.4 -3.16 4.34 -5.62 4.34 c-2.66 0 -3.7 -0.8 -4.34 -1.38 c-1.22 -1.1 -1.46 -2.3 -1.46 -3.64 l1.82 0 c0 2.6 2.12 3.36 3.96 3.36 c1.4 0 3.76 -0.36 3.76 -2.42 c0 -1.5 -0.7 -1.98 -3.06 -2.54 l-2.94 -0.68 c-0.94 -0.22 -3.06 -0.88 -3.06 -3.38 c0 -2.24 1.46 -4.44 4.94 -4.44 c5.02 0 5.52 3 5.6 4.58 z M82.32 18.28 l0 1.72 l-10.6 0 l0 -14.36 l10.46 0 l0 1.72 l-8.52 0 l0 4.4 l7.86 0 l0 1.72 l-7.86 0 l0 4.8 l8.66 0 z M84.96000000000001 20 l0 -14.36 l5.82 0 c3.74 0 6.04 2.84 6.04 6.98 c0 3.22 -1.4 7.38 -6.12 7.38 l-5.74 0 z M86.9 7.300000000000001 l0 11.04 l3.76 0 c2.52 0 4.16 -1.98 4.16 -5.6 s-1.66 -5.44 -4.3 -5.44 l-3.62 0 z M115.66 18.28 l0 1.72 l-10.6 0 l0 -14.36 l10.46 0 l0 1.72 l-8.52 0 l0 4.4 l7.86 0 l0 1.72 l-7.86 0 l0 4.8 l8.66 0 z M127.72 17.240000000000002 l0 -11.6 l1.88 0 l0 14.36 l-2.18 0 l-7.3 -11.6 l-0.04 0 l0 11.6 l-1.88 0 l0 -14.36 l2.3 0 l7.18 11.6 l0.04 0 z M138.9 13.98 l0 -1.66 l6.3 0 l0 7.68 l-1.26 0 l-0.46 -1.86 c-0.98 1.36 -2.78 2.24 -4.74 2.24 c-2.46 0 -3.66 -0.9 -4.4 -1.62 c-2.2 -2.08 -2.26 -4.54 -2.26 -6.06 c0 -3.5 2.12 -7.44 6.8 -7.44 c2.68 0 5.66 1.52 6.08 4.74 l-1.88 0 c-0.62 -2.5 -2.72 -3.02 -4.3 -3.02 c-2.58 0 -4.7 2.06 -4.7 5.82 c0 2.92 0.96 5.92 4.78 5.92 c0.72 0 1.88 -0.08 2.94 -0.92 c1.26 -1 1.58 -2.28 1.58 -3.82 l-4.48 0 z M150.44 5.640000000000001 l0 14.36 l-1.94 0 l0 -14.36 l1.94 0 z M163.28 17.240000000000002 l0 -11.6 l1.88 0 l0 14.36 l-2.18 0 l-7.3 -11.6 l-0.04 0 l0 11.6 l-1.88 0 l0 -14.36 l2.3 0 l7.18 11.6 l0.04 0 z M179 18.28 l0 1.72 l-10.6 0 l0 -14.36 l10.46 0 l0 1.72 l-8.52 0 l0 4.4 l7.86 0 l0 1.72 l-7.86 0 l0 4.8 l8.66 0 z M192.34 18.28 l0 1.72 l-10.6 0 l0 -14.36 l10.46 0 l0 1.72 l-8.52 0 l0 4.4 l7.86 0 l0 1.72 l-7.86 0 l0 4.8 l8.66 0 z M197.06 13.84 l0 6.16 l-1.94 0 l0 -14.36 l6.64 0 c2.36 0 4.72 0.82 4.72 3.86 c0 2.12 -1.08 2.9 -2 3.44 c0.82 0.34 1.64 0.7 1.72 2.7 l0.12 2.6 c0.02 0.8 0.12 1.1 0.72 1.44 l0 0.32 l-2.38 0 c-0.28 -0.88 -0.34 -3.06 -0.34 -3.6 c0 -1.18 -0.24 -2.56 -2.56 -2.56 l-4.7 0 z M197.06 7.300000000000001 l0 4.88 l4.5 0 c1.42 0 2.92 -0.36 2.92 -2.48 c0 -2.22 -1.62 -2.4 -2.58 -2.4 l-4.84 0 z M211.56 5.640000000000001 l0 14.36 l-1.94 0 l0 -14.36 l1.94 0 z M224.4 17.240000000000002 l0 -11.6 l1.88 0 l0 14.36 l-2.18 0 l-7.3 -11.6 l-0.04 0 l0 11.6 l-1.88 0 l0 -14.36 l2.3 0 l7.18 11.6 l0.04 0 z M235.58 13.98 l0 -1.66 l6.3 0 l0 7.68 l-1.26 0 l-0.46 -1.86 c-0.98 1.36 -2.78 2.24 -4.74 2.24 c-2.46 0 -3.66 -0.9 -4.4 -1.62 c-2.2 -2.08 -2.26 -4.54 -2.26 -6.06 c0 -3.5 2.12 -7.44 6.8 -7.44 c2.68 0 5.66 1.52 6.08 4.74 l-1.88 0 c-0.62 -2.5 -2.72 -3.02 -4.3 -3.02 c-2.58 0 -4.7 2.06 -4.7 5.82 c0 2.92 0.96 5.92 4.78 5.92 c0.72 0 1.88 -0.08 2.94 -0.92 c1.26 -1 1.58 -2.28 1.58 -3.82 l-4.48 0 z"></path></g>
			</g>
		</svg>
